<mxfile host="app.diagrams.net" agent="Mozilla/5.0 (X11; Ubuntu; Linux x86_64; rv:135.0) Gecko/20100101 Firefox/135.0" version="26.0.14">
  <diagram name="Page-1" id="y4f-Fp8S1NzeUtQ3RsJ0">
    <mxGraphModel dx="1368" dy="790" grid="1" gridSize="10" guides="1" tooltips="1" connect="1" arrows="1" fold="1" page="1" pageScale="1" pageWidth="850" pageHeight="1100" math="0" shadow="0">
      <root>
        <mxCell id="0" />
        <mxCell id="1" parent="0" />
        <mxCell id="dRdN8C4UgrvtnP99j4bF-1" value="Instance" style="swimlane;whiteSpace=wrap;html=1;" vertex="1" parent="1">
          <mxGeometry x="320" y="190" width="360" height="620" as="geometry" />
        </mxCell>
        <mxCell id="dRdN8C4UgrvtnP99j4bF-5" value="Reachability Test" style="ellipse;whiteSpace=wrap;html=1;" vertex="1" parent="dRdN8C4UgrvtnP99j4bF-1">
          <mxGeometry x="95" y="50" width="170" height="40" as="geometry" />
        </mxCell>
        <mxCell id="dRdN8C4UgrvtnP99j4bF-6" value="Login Test" style="ellipse;whiteSpace=wrap;html=1;" vertex="1" parent="dRdN8C4UgrvtnP99j4bF-1">
          <mxGeometry x="95" y="140" width="170" height="40" as="geometry" />
        </mxCell>
        <mxCell id="dRdN8C4UgrvtnP99j4bF-10" value="Desk Menu Test" style="ellipse;whiteSpace=wrap;html=1;" vertex="1" parent="dRdN8C4UgrvtnP99j4bF-1">
          <mxGeometry x="90" y="220" width="170" height="40" as="geometry" />
        </mxCell>
        <mxCell id="dRdN8C4UgrvtnP99j4bF-11" value="Desk Menu Access Test" style="ellipse;whiteSpace=wrap;html=1;" vertex="1" parent="dRdN8C4UgrvtnP99j4bF-1">
          <mxGeometry x="95" y="310" width="170" height="40" as="geometry" />
        </mxCell>
        <mxCell id="dRdN8C4UgrvtnP99j4bF-2" value="Infra Admin" style="shape=umlActor;verticalLabelPosition=bottom;verticalAlign=top;html=1;outlineConnect=0;" vertex="1" parent="1">
          <mxGeometry x="200" y="50" width="30" height="60" as="geometry" />
        </mxCell>
        <mxCell id="dRdN8C4UgrvtnP99j4bF-3" value="Tester" style="shape=umlActor;verticalLabelPosition=bottom;verticalAlign=top;html=1;outlineConnect=0;" vertex="1" parent="1">
          <mxGeometry x="200" y="380" width="30" height="60" as="geometry" />
        </mxCell>
        <mxCell id="dRdN8C4UgrvtnP99j4bF-4" value="Upgrade/Migrate" style="ellipse;whiteSpace=wrap;html=1;" vertex="1" parent="1">
          <mxGeometry x="410" y="80" width="170" height="40" as="geometry" />
        </mxCell>
        <mxCell id="dRdN8C4UgrvtnP99j4bF-12" value="API Access Test" style="ellipse;whiteSpace=wrap;html=1;" vertex="1" parent="1">
          <mxGeometry x="415" y="590" width="170" height="40" as="geometry" />
        </mxCell>
        <mxCell id="dRdN8C4UgrvtnP99j4bF-18" value="" style="endArrow=classic;html=1;rounded=0;" edge="1" parent="1">
          <mxGeometry width="50" height="50" relative="1" as="geometry">
            <mxPoint x="240" y="100" as="sourcePoint" />
            <mxPoint x="400" y="100" as="targetPoint" />
          </mxGeometry>
        </mxCell>
        <mxCell id="dRdN8C4UgrvtnP99j4bF-19" value="" style="endArrow=classic;html=1;rounded=0;" edge="1" parent="1">
          <mxGeometry width="50" height="50" relative="1" as="geometry">
            <mxPoint x="250" y="370" as="sourcePoint" />
            <mxPoint x="400" y="260" as="targetPoint" />
          </mxGeometry>
        </mxCell>
        <mxCell id="dRdN8C4UgrvtnP99j4bF-20" value="" style="endArrow=classic;html=1;rounded=0;" edge="1" parent="1">
          <mxGeometry width="50" height="50" relative="1" as="geometry">
            <mxPoint x="250" y="390" as="sourcePoint" />
            <mxPoint x="400" y="360" as="targetPoint" />
          </mxGeometry>
        </mxCell>
        <mxCell id="dRdN8C4UgrvtnP99j4bF-21" value="" style="endArrow=classic;html=1;rounded=0;" edge="1" parent="1">
          <mxGeometry width="50" height="50" relative="1" as="geometry">
            <mxPoint x="250" y="420" as="sourcePoint" />
            <mxPoint x="400" y="420" as="targetPoint" />
          </mxGeometry>
        </mxCell>
        <mxCell id="dRdN8C4UgrvtnP99j4bF-22" value="" style="endArrow=classic;html=1;rounded=0;" edge="1" parent="1">
          <mxGeometry width="50" height="50" relative="1" as="geometry">
            <mxPoint x="250" y="440" as="sourcePoint" />
            <mxPoint x="400" y="510" as="targetPoint" />
          </mxGeometry>
        </mxCell>
        <mxCell id="dRdN8C4UgrvtnP99j4bF-23" value="" style="endArrow=classic;html=1;rounded=0;" edge="1" parent="1">
          <mxGeometry width="50" height="50" relative="1" as="geometry">
            <mxPoint x="240" y="470" as="sourcePoint" />
            <mxPoint x="410" y="590" as="targetPoint" />
          </mxGeometry>
        </mxCell>
      </root>
    </mxGraphModel>
  </diagram>
</mxfile>
